<?xml version="1.0" standalone="no"?><!DOCTYPE svg PUBLIC "-//W3C//DTD SVG 1.1//EN" "http://www.w3.org/Graphics/SVG/1.1/DTD/svg11.dtd"><svg class="icon" height="512" viewBox="0 0 1024 1024" version="1.1" xmlns="http://www.w3.org/2000/svg"><path d="M488.148267 370.913705c-8.703219 36.97103 14.520715 73.938989 51.872415 82.527598 37.34556 8.619308 74.653257-14.372336 83.3575-51.357692 8.709359-36.96796-14.515598-73.909313-51.850925-82.514295-37.350676-8.632611-74.686003 14.373359-83.37899 51.344389M572.957839 505.894955c7.958252 0 16.284895-0.525979 24.862247-1.489934l-3.75758-8.939603c-5.477758-13.027711-17.686824-22.024619-31.840173-23.471574-14.154371-1.445932-27.974122 4.907777-35.993772 16.547885l-6.031367 8.750291c15.425318 5.66707 33.085536 8.558933 52.760645 8.602935" fill="#D18B47" /><path d="M437.447539 701.207269c11.847839-0.132006 20.934798-0.778736 27.300786-4.557805 7.931646-2.496867 15.118326-7.493671 20.189831-14.845103l63.742766-92.502787 36.195364 86.164428c6.16235 14.680351 20.50808 23.531949 35.642778 23.531949 4.919033 0 9.931187-0.936325 14.794961-2.952238 19.658735-8.074909 28.965705-30.439266 20.797675-49.926086l-34.793434-82.847893c-17.204847 2.862187-33.927717 4.322445-49.719378 4.322445h-0.421602c-37.790698 0-66.887386-8.29492-88.315418-18.36016l-1.078565 1.606591c0.11461-0.64366 0.246617-1.300622 0.361227-1.958608-9.727549-4.600785-17.835204-9.565866-24.419156-14.254655-23.476691-16.638959-34.108842-33.843806-36.009122-37.116339-4.146437-7.27366-5.198395-15.688307-2.947121-23.693632 2.218528-8.018627 7.503904-14.706957 14.82259-18.799158a31.460526 31.460526 0 0 1 15.468296-4.059456c11.174504 0 21.60404 5.929036 27.229155 15.46932l0.290619 0.407276c0.410346 0.613984 1.375324 1.942235 2.865257 3.680832 2.787486 3.272533 7.668657 8.268314 14.899339 13.395078 0.148379 0.101307 0.323365 0.189312 0.437975 0.290619 2.278903-26.569122-9.437953-53.461609-31.710213-58.95267-26.335808-6.499018-64.536852 7.668657-80.060407 52.40965-21.022803 61.656245-25.546839 101.764732-17.544585 169.642679 9.656941 49.226145 43.689035 54.265928 71.980382 53.905723" fill="#D18B47" /><path d="M614.045629 509.005806c-15.205307 2.571568-28.844955 3.653203-41.104163 3.653203-40.972157-0.104377-66.004273-11.818163-81.59332-22.698978-7.722892-5.494131-13.014408-10.867512-16.22452-14.636348a49.76645 49.76645 0 0 1-3.303232-4.223185c-0.279363-0.394996-0.437975-0.657986-0.52598-0.772596 0-0.016373 0-0.044002-0.016373-0.060375h-0.011256c-6.824429-11.596106-21.823028-15.644305-33.654494-8.996908-11.935843 6.704702-16.126282 21.661346-9.366322 33.479508h-0.011256c1.282203 2.220574 11.158131 18.812461 34.278711 35.174104 22.935362 16.34527 59.289338 31.884175 110.005416 31.884175h0.421602c15.178701 0 31.671327-1.37123 49.474808-4.365424 13.485129-2.278903 22.583344-14.959713 20.276813-28.338419-2.294252-13.377682-15.117302-22.390963-28.646434-20.098757" fill="#D18B47" /><path d="M782.8318 229.241055c5.313006 4.966105 7.974625 11.261485 7.974625 18.856463v522.783601c0 7.590885-2.661619 13.890358-7.974625 18.853393-5.319146 4.984524-11.80486 7.448646-19.48989 7.448646H257.509377c-7.701402 0-14.187117-2.464121-19.516496-7.448646-5.319146-4.963035-7.975649-11.262508-7.975649-18.853393V248.098541c0-7.594979 2.656503-13.891382 7.975649-18.856463 5.329379-4.965082 11.815093-7.449669 19.516496-7.449669h505.832533c7.68503-0.001023 14.170744 2.483564 19.48989 7.448646M746.515686 265.643126H274.336624v487.692385H746.515686V265.643126zM432.233793 123.357516v43.891649l63.146179-43.891649v86.633102h39.745213v-86.633102l63.145156 43.321668v-46.77021l-82.996273-60.078307-83.040275 63.526849zM429.883259 893.578602l0.086981-43.896766 63.058175 44.028772 0.174985-86.650499 39.761586 0.105401-0.174986 86.633103 63.215764-43.196825-0.088004 46.789653-83.143629 59.885925-82.890872-63.698764zM61.686433 79.432097h116.956735v852.401784H61.686433V79.432097zM844.531024 74.875315h114.602108v852.401783H844.531024V74.875315z" fill="#D18B47" /></svg>